<svg width="60" height="61" viewBox="0 0 60 61" fill="none" xmlns="http://www.w3.org/2000/svg">
<path d="M40 8.32202C38.6739 8.32202 37.4021 8.84881 36.4645 9.78649C35.5268 10.7242 35 11.9959 35 13.322V28.322C35 29.6481 35.5268 30.9199 36.4645 31.8576C37.4021 32.7952 38.6739 33.322 40 33.322C40.663 33.322 41.2989 33.5854 41.7678 34.0543C42.2366 34.5231 42.5 35.159 42.5 35.822V38.322C42.5 39.6481 41.9732 40.9199 41.0355 41.8576C40.0979 42.7952 38.8261 43.322 37.5 43.322C36.837 43.322 36.2011 43.5854 35.7322 44.0543C35.2634 44.5231 35 45.159 35 45.822V50.822C35 51.4851 35.2634 52.1209 35.7322 52.5898C36.2011 53.0586 36.837 53.322 37.5 53.322C41.4782 53.322 45.2936 51.7417 48.1066 48.9286C50.9196 46.1156 52.5 42.3003 52.5 38.322V13.322C52.5 11.9959 51.9732 10.7242 51.0355 9.78649C50.0979 8.84881 48.8261 8.32202 47.5 8.32202H40Z" fill="#0B2F9F"/>
<path d="M12.5 8.32202C11.1739 8.32202 9.90215 8.84881 8.96447 9.78649C8.02678 10.7242 7.5 11.9959 7.5 13.322V28.322C7.5 29.6481 8.02678 30.9199 8.96447 31.8576C9.90215 32.7952 11.1739 33.322 12.5 33.322C13.163 33.322 13.7989 33.5854 14.2678 34.0543C14.7366 34.5231 15 35.159 15 35.822V38.322C15 39.6481 14.4732 40.9199 13.5355 41.8576C12.5979 42.7952 11.3261 43.322 10 43.322C9.33696 43.322 8.70107 43.5854 8.23223 44.0543C7.76339 44.5231 7.5 45.159 7.5 45.822V50.822C7.5 51.4851 7.76339 52.1209 8.23223 52.5898C8.70107 53.0586 9.33696 53.322 10 53.322C13.9782 53.322 17.7936 51.7417 20.6066 48.9286C23.4196 46.1156 25 42.3003 25 38.322V13.322C25 11.9959 24.4732 10.7242 23.5355 9.78649C22.5979 8.84881 21.3261 8.32202 20 8.32202H12.5Z" fill="#0B2F9F"/>
</svg>
